<?xml version="1.0" standalone="no"?>
<!DOCTYPE svg PUBLIC "-//W3C//DTD SVG 20010904//EN"
 "http://www.w3.org/TR/2001/REC-SVG-20010904/DTD/svg10.dtd">
<svg version="1.0" xmlns="http://www.w3.org/2000/svg"
 width="227.000000pt" height="227.000000pt" viewBox="0 0 227.000000 227.000000"
 preserveAspectRatio="xMidYMid meet">
<metadata>
Created by potrace 1.11, written by Peter Selinger 2001-2013
</metadata>
<g transform="translate(0.000000,227.000000) scale(0.100000,-0.100000)"
fill="#000000" stroke="none">
<path d="M1804 1488 c-3 -5 -12 -7 -20 -4 -8 3 -14 1 -14 -4 0 -6 -9 -10 -20
-10 -11 0 -20 -4 -20 -10 0 -5 -3 -9 -7 -8 -37 8 -186 -108 -282 -219 -39 -46
-46 -50 -65 -40 -12 7 -23 15 -26 19 -7 9 -99 51 -120 55 -8 1 -37 7 -64 12
-26 5 -62 8 -80 7 -17 -2 -34 2 -37 7 -4 5 -13 6 -20 1 -7 -4 -42 -9 -78 -11
-35 -2 -69 -7 -75 -11 -6 -4 -26 -7 -43 -7 -18 1 -33 -4 -33 -9 0 -6 -5 -4
-10 4 -5 8 -10 10 -10 4 0 -10 -67 -29 -97 -27 -7 0 -13 -2 -13 -6 0 -4 -8 -7
-18 -8 -10 -1 -43 -10 -74 -21 -31 -11 -59 -17 -62 -14 -3 3 -6 0 -6 -7 0 -6
-6 -11 -12 -10 -7 1 -21 -1 -30 -4 -10 -4 -26 -10 -35 -14 -10 -3 -21 -7 -25
-8 -5 -2 -9 -3 -10 -5 -4 -2 -41 -11 -55 -12 -7 -1 -14 -7 -17 -14 -3 -7 -13
-10 -23 -8 -10 3 -27 -2 -38 -10 -15 -12 -16 -15 -5 -16 21 0 88 -58 174 -149
43 -46 136 -119 144 -113 1 1 3 2 5 1 35 -11 129 -15 143 -7 5 4 19 5 30 4 10
-2 25 1 32 7 6 5 12 6 12 2 0 -4 7 -2 15 5 8 7 15 10 15 7 0 -10 134 50 212
95 25 14 49 24 52 21 3 -4 6 -1 6 5 0 6 15 19 33 28 31 16 69 44 112 81 11 10
38 31 60 47 22 17 42 33 45 36 3 3 16 10 30 16 21 9 36 6 90 -20 36 -17 67
-33 70 -36 3 -3 30 -16 60 -30 30 -14 57 -28 60 -32 3 -4 15 -9 25 -11 11 -2
49 -17 85 -34 57 -26 93 -42 110 -48 3 -1 18 -7 33 -13 16 -7 34 -12 42 -12 8
0 16 -4 20 -9 3 -6 14 -8 25 -6 11 2 20 1 20 -3 0 -14 117 -20 169 -10 14 3
37 19 52 37 25 30 27 40 27 117 0 46 -3 84 -7 84 -4 0 -7 12 -6 28 0 15 -7 46
-16 69 -10 22 -15 44 -12 47 4 3 1 6 -5 6 -7 0 -12 7 -12 15 0 8 -5 15 -12 15
-6 0 -9 3 -5 6 6 7 0 15 -54 74 -20 22 -39 37 -42 33 -4 -3 -7 -2 -7 4 0 6
-13 16 -30 23 -16 7 -30 16 -30 20 0 5 -9 6 -20 3 -11 -3 -20 -1 -20 5 0 13
-178 13 -186 0z"/>
<path d="M26 1141 c-29 -18 -35 -60 -12 -84 17 -16 101 -14 146 3 3 1 8 2 12
1 4 0 21 6 39 13 l32 14 -34 15 c-107 47 -152 57 -183 38z"/>
</g>
</svg>
