<svg xmlns="http://www.w3.org/2000/svg" xmlns:xlink="http://www.w3.org/1999/xlink" viewBox="0 0 340.23 444.37"><defs><style>.cls-1{fill:url(#Безымянный_градиент_33);}</style><linearGradient id="Безымянный_градиент_33" y1="222.19" x2="340.23" y2="222.19" gradientUnits="userSpaceOnUse"><stop offset="0" stop-color="#32a867"/><stop offset="1" stop-color="#92bff0"/></linearGradient></defs><title>advantages-ic-1</title><g id="Слой_2" data-name="Слой 2"><g id="Слой_1-2" data-name="Слой 1"><path class="cls-1" d="M299.76,412a6.94,6.94,0,0,1-9,8.65l-41.35-13.44-26.3,34.54a6.94,6.94,0,0,1-12.1-2.2l-28.81-92.87,24.06,9A44.49,44.49,0,0,0,260.07,336l10.48-17.92Zm37.5-254.6-19.31,33.47a22.09,22.09,0,0,0-2.64,14.87l6.72,38a22.09,22.09,0,0,1-14.2,24.6l-36.29,13.22A22.09,22.09,0,0,0,260,291.26l-19.31,33.47a22.09,22.09,0,0,1-26.88,9.72L177.5,321.24a22.09,22.09,0,0,0-15.1,0l-36.15,12.95a22.09,22.09,0,0,1-26.88-9.72L80.06,291a22.09,22.09,0,0,0-11.56-9.72L32.21,268.06A22.09,22.09,0,0,1,18,243.46l6.72-38a22.09,22.09,0,0,0-2.46-14.6L3,157.36a22.09,22.09,0,0,1,4.93-28l29.57-24.82A22.09,22.09,0,0,0,45,91.5l6.72-38A22.09,22.09,0,0,1,73.52,35.19h38.62a22.09,22.09,0,0,0,14.2-5.2L155.91,5.17a22.09,22.09,0,0,1,28.4,0L213.88,30a22.09,22.09,0,0,0,14.2,5.15H266.7a22.09,22.09,0,0,1,21.77,18.28l6.72,38a22.09,22.09,0,0,0,7.57,13.08l29.57,24.82a22.09,22.09,0,0,1,4.93,28Zm-98.2-6a10.57,10.57,0,0,0-8.56-7.21L195.37,139l-15.72-31.81a10.62,10.62,0,0,0-19,0L144.88,139l-35.12,5.11a10.62,10.62,0,0,0-5.91,17.92l25.45,24.77-6,35.35a10.62,10.62,0,0,0,15.46,11l31.36-16.53,31.36,16.53a10.62,10.62,0,0,0,15.46-11l-6-35,25.45-24.77A10.57,10.57,0,0,0,239.05,151.35ZM49.15,420.6,90.5,407.16l26.57,34.54a6.94,6.94,0,0,0,12.1-2.2L158,346.73l-24.06,9a44.49,44.49,0,0,1-53.76-19.58L69.71,317.92,40.46,412a6.94,6.94,0,0,0,8.69,8.6Z"/></g></g></svg>