<svg xmlns="http://www.w3.org/2000/svg" xmlns:xlink="http://www.w3.org/1999/xlink" viewBox="0 0 420.61 426.03"><defs><style>.cls-1{fill:url(#Безымянный_градиент_10);}.cls-2{fill:url(#Безымянный_градиент_10-2);}</style><linearGradient id="Безымянный_градиент_10" y1="353.97" x2="140.94" y2="353.97" gradientUnits="userSpaceOnUse"><stop offset="0" stop-color="#32a867"/><stop offset="1" stop-color="#92bff0"/></linearGradient><linearGradient id="Безымянный_градиент_10-2" x1="44.2" y1="188.31" x2="420.61" y2="188.31" xlink:href="#Безымянный_градиент_10"/></defs><title>advantages-ic-6</title><g id="Слой_2" data-name="Слой 2"><g id="Слой_1-2" data-name="Слой 1"><path class="cls-1" d="M119,338.82c-4.48,7.17-13,11.2-18.82,12.54-9.86,1.79-19.26,2.69-26.43,8.51a4,4,0,0,1-6.27-2.24c-1.34-8.51.9-17.92,4.93-23.74a10.21,10.21,0,0,0-4.93,1.34,4.21,4.21,0,0,1-5.82-4.48c2.69-9.86,9.41-22.85,19.71-28.67l-17-17-3.14-3.14C28,289.09,7.43,328.51.27,355.39c-1.79,7.62,5.82,13.44,13,10.3A24.29,24.29,0,0,1,24.46,363c-9,13.44-14.78,35.39-11.2,55.55A9.16,9.16,0,0,0,28,423.94c17-13.89,39-15.23,61.82-19.71,17-3.58,44.35-18.37,51.07-43.46a53.69,53.69,0,0,1-5.38-4.93Z"/><path class="cls-2" d="M338.06,231.74c67.2-76.16,84.22-185.47,82.43-218.62a12.88,12.88,0,0,0-4-9,15.11,15.11,0,0,0-9-4C374.35-1.66,265,14.91,188.87,82.56l-24.19-9A68.19,68.19,0,0,0,89.42,93.31L47.31,143c-5.82,7.17-3.14,17.92,5.38,21.06l53.76,19.71A651.45,651.45,0,0,0,75.08,242,25.52,25.52,0,0,0,80,269.82l70.78,70.78a24.59,24.59,0,0,0,27.78,4.93,547.08,547.08,0,0,0,58.24-31.36l19.71,53.76a13.15,13.15,0,0,0,21.06,5.38l49.28-42.11a68.19,68.19,0,0,0,19.71-75.26Zm-29.12-60a43.08,43.08,0,1,1,0-60.93C326,127.81,326,155.14,308.94,171.71Z"/></g></g></svg>