<svg xmlns="http://www.w3.org/2000/svg" xmlns:xlink="http://www.w3.org/1999/xlink" viewBox="0 0 278.6 373.28"><defs><style>.cls-1{fill:url(#Безымянный_градиент_14);}.cls-2{fill:url(#Безымянный_градиент_14-2);}</style><linearGradient id="Безымянный_градиент_14" x1="31.73" y1="96.6" x2="247.33" y2="96.6" gradientUnits="userSpaceOnUse"><stop offset="0" stop-color="#32a867"/><stop offset="1" stop-color="#92bff0"/></linearGradient><linearGradient id="Безымянный_градиент_14-2" x1="0" y1="291.17" x2="278.6" y2="291.17" xlink:href="#Безымянный_градиент_14"/></defs><title>advantages-ic-2</title><g id="Слой_2" data-name="Слой 2"><g id="Слой_1-2" data-name="Слой 1"><path class="cls-1" d="M217.47,134.4c-4.2-11.2-.93-17.73.93-36.4C224,41.07,189.47,0,139.53,0,84.93,0,55.07,41.07,60.67,98c1.4,18.67,4.67,24.73.93,36.4-4.2,11.2-29.87,28.93-29.87,28.93s35.47,3.27,50.87,7.93c10.27,7.93,31.27,21.93,56.93,21.93,21.93,0,46.67-13.53,56.93-21.93,15.4-4.2,50.87-7.93,50.87-7.93S221.67,145.6,217.47,134.4Z"/><path class="cls-2" d="M93.8,209.07c26.13,14.47,69.07,18.2,95.67,0,56.47,1.4,87.27,92.87,89.13,161.93-95.2,2.8-178.27,3.27-278.6,0C1.87,302.4,30.33,212.33,93.8,209.07Z"/></g></g></svg>