<svg xmlns="http://www.w3.org/2000/svg" xmlns:xlink="http://www.w3.org/1999/xlink" viewBox="0 0 429.61 447.98"><defs><style>.cls-1{fill:url(#Безымянный_градиент_10);}</style><linearGradient id="Безымянный_градиент_10" y1="223.99" x2="429.61" y2="223.99" gradientUnits="userSpaceOnUse"><stop offset="0" stop-color="#32a867"/><stop offset="1" stop-color="#92bff0"/></linearGradient></defs><title>advantages-ic-7</title><g id="Слой_2" data-name="Слой 2"><g id="Слой_1-2" data-name="Слой 1"><path class="cls-1" d="M255.48,47.92C140.79,35.59,77.14,95.7,55.92,120.75A145.75,145.75,0,0,0,22.67,269.28c55.28-72,147.87-85.51,173.62-87.92C166.23,196.57,34,270.64,4.43,410.47c-.31,1.15-.71,2.27-1,3.43-.72,2.9-1.4,5.8-2,8.81a44.57,44.57,0,0,0-.89,5.12c-.69,3.28-1.71,11.75,3.86,14l18.9,5.89s10,2.77,9.77-8.42C33.3,401.88,43.1,360,68,334.76a145.76,145.76,0,0,0,177.09,6.1C373.8,260.93,429.61,0,429.61,0,381.66,63.15,255.48,47.92,255.48,47.92Zm-52.81,133.2v-.23a2.18,2.18,0,0,0,.51-.06A3,3,0,0,1,202.67,181.13Z"/></g></g></svg>