<svg xmlns="http://www.w3.org/2000/svg" xmlns:xlink="http://www.w3.org/1999/xlink" viewBox="0 0 530.83 505.45"><defs><style>.cls-1{fill:url(#Безымянный_градиент_9);}.cls-2{fill:url(#Безымянный_градиент_9-2);}.cls-3{fill:url(#Безымянный_градиент_9-3);}</style><linearGradient id="Безымянный_градиент_9" x1="340.26" y1="443.72" x2="463.72" y2="443.72" gradientUnits="userSpaceOnUse"><stop offset="0" stop-color="#32a867"/><stop offset="1" stop-color="#92bff0"/></linearGradient><linearGradient id="Безымянный_градиент_9-2" x1="0" y1="179.89" x2="530.83" y2="179.89" xlink:href="#Безымянный_градиент_9"/><linearGradient id="Безымянный_градиент_9-3" x1="129.7" y1="443.75" x2="250.89" y2="443.75" xlink:href="#Безымянный_градиент_9"/></defs><title>cart-ic</title><g id="Слой_2" data-name="Слой 2"><g id="Слой_1-2" data-name="Слой 1"><path class="cls-1" d="M402.05,382a61.73,61.73,0,1,0,61.67,61.79v-.06A61.79,61.79,0,0,0,402.05,382Z"/><path class="cls-2" d="M507.06,86H131.2l-6-39.82A53.58,53.58,0,0,0,72.21,0H23.81a23.81,23.81,0,1,0,0,47.62H72.27a6,6,0,0,1,6,5.24l36.67,251.33a65.84,65.84,0,0,0,64.83,55.6h247.7a65.48,65.48,0,0,0,64.23-52.33l38.75-193.17A23.81,23.81,0,0,0,507.06,86Z"/><path class="cls-3" d="M188.94,382.05a61.73,61.73,0,0,0,1.43,123.4h1.49a61.73,61.73,0,0,0-2.92-123.4Z"/></g></g></svg>