<svg xmlns="http://www.w3.org/2000/svg" viewBox="0 0 320.77 275.07"><defs><style>.cls-1{fill:#fff;}</style></defs><title>goals-ic-3</title><g id="Слой_2" data-name="Слой 2"><g id="Слой_1-2" data-name="Слой 1"><path class="cls-1" d="M316.29,21.06a21.06,21.06,0,1,0-42.11,0V89.6a26.2,26.2,0,0,1,8.51-1.79,24.48,24.48,0,0,1,17,7.17c9.41,9.41,9.41,24.64,0,33.6L248.64,179.2h0a3.79,3.79,0,0,1-2.69.9,3.85,3.85,0,0,1-3.58-3.58,6.37,6.37,0,0,1,.9-2.69h0l51.07-50.18c6.72-6.72,6.72-17.47,0-23.74a17.31,17.31,0,0,0-24.19,0l-.9.9a3.5,3.5,0,0,1-1.79,1.79l-76.16,65A21.08,21.08,0,0,0,185,182.34V254a21,21,0,0,0,21.06,21.06h29.57A21,21,0,0,0,256.7,254v-23.3A19.59,19.59,0,0,1,263,215.94l51.52-61.38a21.08,21.08,0,0,0,6.27-14.78Z"/><path class="cls-1" d="M4.48,21.06a21.06,21.06,0,1,1,42.11,0V89.6a26.2,26.2,0,0,0-8.51-1.79,24.48,24.48,0,0,0-17,7.17c-9.41,9.41-9.41,24.64,0,33.6L71.68,179.2h0a3.79,3.79,0,0,0,2.69.9A3.85,3.85,0,0,0,78,176.51a6.37,6.37,0,0,0-.9-2.69h0L26.43,123.65c-6.72-6.72-6.72-17.47,0-23.74a17.31,17.31,0,0,1,24.19,0l.9.9a3.5,3.5,0,0,0,1.79,1.79l76.61,65a21.08,21.08,0,0,1,6.27,14.78V254a21,21,0,0,1-21.06,21.06H85.57A21,21,0,0,1,64.51,254v-23.3a19.59,19.59,0,0,0-6.27-14.78l-52-61.38A21.08,21.08,0,0,1,0,139.78Z"/><path class="cls-1" d="M243.71,19.26a56.51,56.51,0,0,0-79.74,0l-3.58,3.14-3.14-3.14A56.39,56.39,0,1,0,77.5,99l3.14,3.14s57.34,47.49,79.74,78c22.85-30.46,79.74-78,79.74-78L243.26,99A56.11,56.11,0,0,0,243.71,19.26Z"/></g></g></svg>