<svg xmlns="http://www.w3.org/2000/svg" viewBox="0 0 857.88 448"><defs><style>.cls-1{fill:#fff;}</style></defs><title>goals-ic-1</title><g id="Слой_2" data-name="Слой 2"><g id="Слой_1-2" data-name="Слой 1"><path class="cls-1" d="M578.27,390.81c-38.13,35-92.14,57.19-149.33,57.19S317.73,425.76,279.6,390.81C374.92,400.34,483,400.34,578.27,390.81Z"/><path class="cls-1" d="M428.94,0C552.85,0,651.35,104.85,651.35,222.41c0,12.71,0,25.42-3.18,38.13L645,263.72C575.09,279.6,498.84,286,428.94,286S279.6,279.6,212.88,263.72l-6.35-3.18V222.41c0-44.48,9.53-69.9,28.6-104.85C273.25,44.48,343.15,0,428.94,0Z"/><path class="cls-1" d="M0,231.94C0,162,104.85,130.27,225.59,111.21c-6.35,9.53-9.53,15.89-12.71,25.42-60.37,15.89-101.67,28.6-101.67,69.9,0,120.74,635.46,120.74,635.46,0,0-41.3-41.3-54-101.67-69.9-3.18-9.53-6.35-15.89-12.71-25.42C753,130.27,857.87,162,857.87,231.94,861,438.47,3.18,438.47,0,231.94Z"/></g></g></svg>