<svg xmlns="http://www.w3.org/2000/svg" viewBox="0 0 323.35 328.84"><defs><style>.cls-1{stroke:#32a867;fill:#32a867;stroke-miterlimit:10;stroke-width:6px;}</style></defs><g><path class="cls-1" d="M161.67,149.27a73.13,73.13,0,1,1,73.14-73.13A73.21,73.21,0,0,1,161.67,149.27Zm0-127.22a54.08,54.08,0,1,0,54.09,54.09A54.15,54.15,0,0,0,161.67,22Zm0,303.79C79.26,325.84,3,318.7,3,266.94,3,221.2,72.31,168,161.67,168s158.68,53.17,158.68,98.9C320.35,318.7,244.09,325.84,161.67,325.84Zm0-138.76C86.48,187.08,22,231,22,266.94c0,35.32,74.62,39.85,139.63,39.85s139.63-4.53,139.63-39.85C301.31,231,236.88,187.08,161.67,187.08Z"/></g></svg>